<?xml version="1.0" encoding="UTF-8"?><svg xmlns="http://www.w3.org/2000/svg" xmlns:xlink="http://www.w3.org/1999/xlink" fill-opacity="1" color-rendering="auto" color-interpolation="auto" text-rendering="auto" stroke="black" stroke-linecap="square" width="1731" stroke-miterlimit="10" shape-rendering="auto" stroke-opacity="1" fill="black" stroke-dasharray="none" font-weight="normal" stroke-width="1" height="1330" font-family="'Dialog'" font-style="normal" stroke-linejoin="miter" font-size="12" stroke-dashoffset="0" image-rendering="auto">
  <!--Generated by ySVG 2.5-->
  <defs id="genericDefs"/>
  <g>
    <defs id="defs1">
      <clipPath clipPathUnits="userSpaceOnUse" id="clipPath1">
        <path d="M0 0 L1731 0 L1731 1330 L0 1330 L0 0 Z"/>
      </clipPath>
      <clipPath clipPathUnits="userSpaceOnUse" id="clipPath2">
        <path d="M190 -525 L1921 -525 L1921 805 L190 805 L190 -525 Z"/>
      </clipPath>
    </defs>
    <g fill="white" text-rendering="geometricPrecision" shape-rendering="geometricPrecision" transform="translate(-190,525)" stroke="white">
      <rect x="190" width="1731" height="1330" y="-525" clip-path="url(#clipPath2)" stroke="none"/>
    </g>
    <g fill="rgb(255,204,0)" text-rendering="geometricPrecision" shape-rendering="geometricPrecision" transform="matrix(1,0,0,1,-190,525)" stroke="rgb(255,204,0)">
      <rect x="225.5" width="400" height="20" y="770" clip-path="url(#clipPath2)" stroke="none"/>
    </g>
    <g text-rendering="geometricPrecision" stroke-miterlimit="1.45" shape-rendering="geometricPrecision" transform="matrix(1,0,0,1,-190,525)" stroke-linecap="butt">
      <rect fill="none" x="225.5" width="400" height="20" y="770" clip-path="url(#clipPath2)"/>
    </g>
    <g fill="rgb(255,204,0)" text-rendering="geometricPrecision" shape-rendering="geometricPrecision" transform="matrix(1,0,0,1,-190,525)" stroke="rgb(255,204,0)">
      <rect x="645.5" width="400" height="20" y="770" clip-path="url(#clipPath2)" stroke="none"/>
    </g>
    <g text-rendering="geometricPrecision" stroke-miterlimit="1.45" shape-rendering="geometricPrecision" transform="matrix(1,0,0,1,-190,525)" stroke-linecap="butt">
      <rect fill="none" x="645.5" width="400" height="20" y="770" clip-path="url(#clipPath2)"/>
    </g>
    <g fill="rgb(255,204,0)" text-rendering="geometricPrecision" shape-rendering="geometricPrecision" transform="matrix(1,0,0,1,-190,525)" stroke="rgb(255,204,0)">
      <rect x="205.5" width="20" height="500" y="290" clip-path="url(#clipPath2)" stroke="none"/>
    </g>
    <g text-rendering="geometricPrecision" stroke-miterlimit="1.45" shape-rendering="geometricPrecision" transform="matrix(1,0,0,1,-190,525)" stroke-linecap="butt">
      <rect fill="none" x="205.5" width="20" height="500" y="290" clip-path="url(#clipPath2)"/>
    </g>
    <g fill="rgb(255,204,0)" text-rendering="geometricPrecision" shape-rendering="geometricPrecision" transform="matrix(1,0,0,1,-190,525)" stroke="rgb(255,204,0)">
      <rect x="625.5" width="20" height="500" y="290" clip-path="url(#clipPath2)" stroke="none"/>
    </g>
    <g text-rendering="geometricPrecision" stroke-miterlimit="1.45" shape-rendering="geometricPrecision" transform="matrix(1,0,0,1,-190,525)" stroke-linecap="butt">
      <rect fill="none" x="625.5" width="20" height="500" y="290" clip-path="url(#clipPath2)"/>
    </g>
    <g fill="rgb(255,204,0)" text-rendering="geometricPrecision" shape-rendering="geometricPrecision" transform="matrix(1,0,0,1,-190,525)" stroke="rgb(255,204,0)">
      <rect x="645.5" width="400" height="20" y="-410.0781" clip-path="url(#clipPath2)" stroke="none"/>
    </g>
    <g text-rendering="geometricPrecision" stroke-miterlimit="1.45" shape-rendering="geometricPrecision" transform="matrix(1,0,0,1,-190,525)" stroke-linecap="butt">
      <rect fill="none" x="645.5" width="400" height="20" y="-410.0781" clip-path="url(#clipPath2)"/>
    </g>
    <g fill="rgb(255,204,0)" text-rendering="geometricPrecision" shape-rendering="geometricPrecision" transform="matrix(1,0,0,1,-190,525)" stroke="rgb(255,204,0)">
      <rect x="225.5" width="400" height="20" y="-410.0781" clip-path="url(#clipPath2)" stroke="none"/>
    </g>
    <g text-rendering="geometricPrecision" stroke-miterlimit="1.45" shape-rendering="geometricPrecision" transform="matrix(1,0,0,1,-190,525)" stroke-linecap="butt">
      <rect fill="none" x="225.5" width="400" height="20" y="-410.0781" clip-path="url(#clipPath2)"/>
    </g>
    <g fill="rgb(255,204,0)" text-rendering="geometricPrecision" shape-rendering="geometricPrecision" transform="matrix(1,0,0,1,-190,525)" stroke="rgb(255,204,0)">
      <rect x="1485.5" width="400" height="20" y="770" clip-path="url(#clipPath2)" stroke="none"/>
    </g>
    <g text-rendering="geometricPrecision" stroke-miterlimit="1.45" shape-rendering="geometricPrecision" transform="matrix(1,0,0,1,-190,525)" stroke-linecap="butt">
      <rect fill="none" x="1485.5" width="400" height="20" y="770" clip-path="url(#clipPath2)"/>
    </g>
    <g fill="rgb(255,204,0)" text-rendering="geometricPrecision" shape-rendering="geometricPrecision" transform="matrix(1,0,0,1,-190,525)" stroke="rgb(255,204,0)">
      <rect x="1065.5" width="400" height="20" y="770" clip-path="url(#clipPath2)" stroke="none"/>
    </g>
    <g text-rendering="geometricPrecision" stroke-miterlimit="1.45" shape-rendering="geometricPrecision" transform="matrix(1,0,0,1,-190,525)" stroke-linecap="butt">
      <rect fill="none" x="1065.5" width="400" height="20" y="770" clip-path="url(#clipPath2)"/>
    </g>
    <g fill="rgb(255,204,0)" text-rendering="geometricPrecision" shape-rendering="geometricPrecision" transform="matrix(1,0,0,1,-190,525)" stroke="rgb(255,204,0)">
      <rect x="205.5" width="20" height="500" y="-410.0781" clip-path="url(#clipPath2)" stroke="none"/>
    </g>
    <g text-rendering="geometricPrecision" stroke-miterlimit="1.45" shape-rendering="geometricPrecision" transform="matrix(1,0,0,1,-190,525)" stroke-linecap="butt">
      <rect fill="none" x="205.5" width="20" height="500" y="-410.0781" clip-path="url(#clipPath2)"/>
    </g>
    <g fill="rgb(255,204,0)" text-rendering="geometricPrecision" shape-rendering="geometricPrecision" transform="matrix(1,0,0,1,-190,525)" stroke="rgb(255,204,0)">
      <rect x="1885.5" width="20" height="500" y="290" clip-path="url(#clipPath2)" stroke="none"/>
    </g>
    <g text-rendering="geometricPrecision" stroke-miterlimit="1.45" shape-rendering="geometricPrecision" transform="matrix(1,0,0,1,-190,525)" stroke-linecap="butt">
      <rect fill="none" x="1885.5" width="20" height="500" y="290" clip-path="url(#clipPath2)"/>
    </g>
    <g fill="rgb(255,204,0)" text-rendering="geometricPrecision" shape-rendering="geometricPrecision" transform="matrix(1,0,0,1,-190,525)" stroke="rgb(255,204,0)">
      <rect x="1465.5" width="20" height="500" y="290" clip-path="url(#clipPath2)" stroke="none"/>
    </g>
    <g text-rendering="geometricPrecision" stroke-miterlimit="1.45" shape-rendering="geometricPrecision" transform="matrix(1,0,0,1,-190,525)" stroke-linecap="butt">
      <rect fill="none" x="1465.5" width="20" height="500" y="290" clip-path="url(#clipPath2)"/>
    </g>
    <g fill="rgb(255,204,0)" text-rendering="geometricPrecision" shape-rendering="geometricPrecision" transform="matrix(1,0,0,1,-190,525)" stroke="rgb(255,204,0)">
      <rect x="1045.5" width="20" height="500" y="290" clip-path="url(#clipPath2)" stroke="none"/>
    </g>
    <g text-rendering="geometricPrecision" stroke-miterlimit="1.45" shape-rendering="geometricPrecision" transform="matrix(1,0,0,1,-190,525)" stroke-linecap="butt">
      <rect fill="none" x="1045.5" width="20" height="500" y="290" clip-path="url(#clipPath2)"/>
    </g>
    <g fill="rgb(255,204,0)" text-rendering="geometricPrecision" shape-rendering="geometricPrecision" transform="matrix(1,0,0,1,-190,525)" stroke="rgb(255,204,0)">
      <rect x="205.5" width="20" height="200" y="89.9219" clip-path="url(#clipPath2)" stroke="none"/>
    </g>
    <g text-rendering="geometricPrecision" stroke-miterlimit="1.45" shape-rendering="geometricPrecision" transform="matrix(1,0,0,1,-190,525)" stroke-linecap="butt">
      <rect fill="none" x="205.5" width="20" height="200" y="89.9219" clip-path="url(#clipPath2)"/>
    </g>
    <g fill="rgb(255,204,0)" text-rendering="geometricPrecision" shape-rendering="geometricPrecision" transform="matrix(1,0,0,1,-190,525)" stroke="rgb(255,204,0)">
      <rect x="625.5" width="20" height="500" y="-410.0781" clip-path="url(#clipPath2)" stroke="none"/>
    </g>
    <g text-rendering="geometricPrecision" stroke-miterlimit="1.45" shape-rendering="geometricPrecision" transform="matrix(1,0,0,1,-190,525)" stroke-linecap="butt">
      <rect fill="none" x="625.5" width="20" height="500" y="-410.0781" clip-path="url(#clipPath2)"/>
    </g>
    <g fill="rgb(255,204,0)" text-rendering="geometricPrecision" shape-rendering="geometricPrecision" transform="matrix(1,0,0,1,-190,525)" stroke="rgb(255,204,0)">
      <rect x="1045.5" width="20" height="500" y="-410.0781" clip-path="url(#clipPath2)" stroke="none"/>
    </g>
    <g text-rendering="geometricPrecision" stroke-miterlimit="1.45" shape-rendering="geometricPrecision" transform="matrix(1,0,0,1,-190,525)" stroke-linecap="butt">
      <rect fill="none" x="1045.5" width="20" height="500" y="-410.0781" clip-path="url(#clipPath2)"/>
    </g>
    <g fill="rgb(255,204,0)" text-rendering="geometricPrecision" shape-rendering="geometricPrecision" transform="matrix(1,0,0,1,-190,525)" stroke="rgb(255,204,0)">
      <rect x="1465.5" width="20" height="500" y="-410.0781" clip-path="url(#clipPath2)" stroke="none"/>
    </g>
    <g text-rendering="geometricPrecision" stroke-miterlimit="1.45" shape-rendering="geometricPrecision" transform="matrix(1,0,0,1,-190,525)" stroke-linecap="butt">
      <rect fill="none" x="1465.5" width="20" height="500" y="-410.0781" clip-path="url(#clipPath2)"/>
    </g>
    <g fill="rgb(255,204,0)" text-rendering="geometricPrecision" shape-rendering="geometricPrecision" transform="matrix(1,0,0,1,-190,525)" stroke="rgb(255,204,0)">
      <rect x="1065.5" width="400" height="20" y="-410.0781" clip-path="url(#clipPath2)" stroke="none"/>
    </g>
    <g text-rendering="geometricPrecision" stroke-miterlimit="1.45" shape-rendering="geometricPrecision" transform="matrix(1,0,0,1,-190,525)" stroke-linecap="butt">
      <rect fill="none" x="1065.5" width="400" height="20" y="-410.0781" clip-path="url(#clipPath2)"/>
    </g>
    <g fill="rgb(255,204,0)" text-rendering="geometricPrecision" shape-rendering="geometricPrecision" transform="matrix(1,0,0,1,-190,525)" stroke="rgb(255,204,0)">
      <rect x="1885.5" width="20" height="500" y="-410.0781" clip-path="url(#clipPath2)" stroke="none"/>
    </g>
    <g text-rendering="geometricPrecision" stroke-miterlimit="1.45" shape-rendering="geometricPrecision" transform="matrix(1,0,0,1,-190,525)" stroke-linecap="butt">
      <rect fill="none" x="1885.5" width="20" height="500" y="-410.0781" clip-path="url(#clipPath2)"/>
    </g>
    <g fill="rgb(255,204,0)" text-rendering="geometricPrecision" shape-rendering="geometricPrecision" transform="matrix(1,0,0,1,-190,525)" stroke="rgb(255,204,0)">
      <rect x="1485.5" width="400" height="20" y="-410.0781" clip-path="url(#clipPath2)" stroke="none"/>
    </g>
    <g text-rendering="geometricPrecision" stroke-miterlimit="1.45" shape-rendering="geometricPrecision" transform="matrix(1,0,0,1,-190,525)" stroke-linecap="butt">
      <rect fill="none" x="1485.5" width="400" height="20" y="-410.0781" clip-path="url(#clipPath2)"/>
    </g>
    <g fill="rgb(255,204,0)" text-rendering="geometricPrecision" shape-rendering="geometricPrecision" transform="matrix(1,0,0,1,-190,525)" stroke="rgb(255,204,0)">
      <rect x="1885.5" width="20" height="200" y="89.9609" clip-path="url(#clipPath2)" stroke="none"/>
    </g>
    <g text-rendering="geometricPrecision" stroke-miterlimit="1.45" shape-rendering="geometricPrecision" transform="matrix(1,0,0,1,-190,525)" stroke-linecap="butt">
      <rect fill="none" x="1885.5" width="20" height="200" y="89.9609" clip-path="url(#clipPath2)"/>
    </g>
    <g fill="rgb(255,204,0)" text-rendering="geometricPrecision" shape-rendering="geometricPrecision" transform="matrix(1,0,0,1,-190,525)" stroke="rgb(255,204,0)">
      <rect x="905.5" width="140" height="20" y="69.9219" clip-path="url(#clipPath2)" stroke="none"/>
    </g>
    <g text-rendering="geometricPrecision" stroke-miterlimit="1.45" shape-rendering="geometricPrecision" transform="matrix(1,0,0,1,-190,525)" stroke-linecap="butt">
      <rect fill="none" x="905.5" width="140" height="20" y="69.9219" clip-path="url(#clipPath2)"/>
    </g>
    <g fill="rgb(255,204,0)" text-rendering="geometricPrecision" shape-rendering="geometricPrecision" transform="matrix(1,0,0,1,-190,525)" stroke="rgb(255,204,0)">
      <rect x="645.5" width="140" height="20" y="69.9219" clip-path="url(#clipPath2)" stroke="none"/>
    </g>
    <g text-rendering="geometricPrecision" stroke-miterlimit="1.45" shape-rendering="geometricPrecision" transform="matrix(1,0,0,1,-190,525)" stroke-linecap="butt">
      <rect fill="none" x="645.5" width="140" height="20" y="69.9219" clip-path="url(#clipPath2)"/>
    </g>
    <g fill="rgb(255,204,0)" text-rendering="geometricPrecision" shape-rendering="geometricPrecision" transform="matrix(1,0,0,1,-190,525)" stroke="rgb(255,204,0)">
      <rect x="485.5" width="140" height="20" y="69.9219" clip-path="url(#clipPath2)" stroke="none"/>
    </g>
    <g text-rendering="geometricPrecision" stroke-miterlimit="1.45" shape-rendering="geometricPrecision" transform="matrix(1,0,0,1,-190,525)" stroke-linecap="butt">
      <rect fill="none" x="485.5" width="140" height="20" y="69.9219" clip-path="url(#clipPath2)"/>
    </g>
    <g fill="rgb(255,204,0)" text-rendering="geometricPrecision" shape-rendering="geometricPrecision" transform="matrix(1,0,0,1,-190,525)" stroke="rgb(255,204,0)">
      <rect x="225.5" width="140" height="20" y="69.9219" clip-path="url(#clipPath2)" stroke="none"/>
    </g>
    <g text-rendering="geometricPrecision" stroke-miterlimit="1.45" shape-rendering="geometricPrecision" transform="matrix(1,0,0,1,-190,525)" stroke-linecap="butt">
      <rect fill="none" x="225.5" width="140" height="20" y="69.9219" clip-path="url(#clipPath2)"/>
    </g>
    <g fill="rgb(255,204,0)" text-rendering="geometricPrecision" shape-rendering="geometricPrecision" transform="matrix(1,0,0,1,-190,525)" stroke="rgb(255,204,0)">
      <rect x="1485.5" width="140" height="20" y="289.9609" clip-path="url(#clipPath2)" stroke="none"/>
    </g>
    <g text-rendering="geometricPrecision" stroke-miterlimit="1.45" shape-rendering="geometricPrecision" transform="matrix(1,0,0,1,-190,525)" stroke-linecap="butt">
      <rect fill="none" x="1485.5" width="140" height="20" y="289.9609" clip-path="url(#clipPath2)"/>
    </g>
    <g fill="rgb(255,204,0)" text-rendering="geometricPrecision" shape-rendering="geometricPrecision" transform="matrix(1,0,0,1,-190,525)" stroke="rgb(255,204,0)">
      <rect x="485.5" width="140" height="20" y="289.9219" clip-path="url(#clipPath2)" stroke="none"/>
    </g>
    <g text-rendering="geometricPrecision" stroke-miterlimit="1.45" shape-rendering="geometricPrecision" transform="matrix(1,0,0,1,-190,525)" stroke-linecap="butt">
      <rect fill="none" x="485.5" width="140" height="20" y="289.9219" clip-path="url(#clipPath2)"/>
    </g>
    <g fill="rgb(255,204,0)" text-rendering="geometricPrecision" shape-rendering="geometricPrecision" transform="matrix(1,0,0,1,-190,525)" stroke="rgb(255,204,0)">
      <rect x="225.5" width="140" height="20" y="289.9219" clip-path="url(#clipPath2)" stroke="none"/>
    </g>
    <g text-rendering="geometricPrecision" stroke-miterlimit="1.45" shape-rendering="geometricPrecision" transform="matrix(1,0,0,1,-190,525)" stroke-linecap="butt">
      <rect fill="none" x="225.5" width="140" height="20" y="289.9219" clip-path="url(#clipPath2)"/>
    </g>
    <g fill="rgb(255,204,0)" text-rendering="geometricPrecision" shape-rendering="geometricPrecision" transform="matrix(1,0,0,1,-190,525)" stroke="rgb(255,204,0)">
      <rect x="1745.5" width="140" height="20" y="69.9219" clip-path="url(#clipPath2)" stroke="none"/>
    </g>
    <g text-rendering="geometricPrecision" stroke-miterlimit="1.45" shape-rendering="geometricPrecision" transform="matrix(1,0,0,1,-190,525)" stroke-linecap="butt">
      <rect fill="none" x="1745.5" width="140" height="20" y="69.9219" clip-path="url(#clipPath2)"/>
    </g>
    <g fill="rgb(255,204,0)" text-rendering="geometricPrecision" shape-rendering="geometricPrecision" transform="matrix(1,0,0,1,-190,525)" stroke="rgb(255,204,0)">
      <rect x="1485.5" width="140" height="20" y="69.9219" clip-path="url(#clipPath2)" stroke="none"/>
    </g>
    <g text-rendering="geometricPrecision" stroke-miterlimit="1.45" shape-rendering="geometricPrecision" transform="matrix(1,0,0,1,-190,525)" stroke-linecap="butt">
      <rect fill="none" x="1485.5" width="140" height="20" y="69.9219" clip-path="url(#clipPath2)"/>
    </g>
    <g fill="rgb(255,204,0)" text-rendering="geometricPrecision" shape-rendering="geometricPrecision" transform="matrix(1,0,0,1,-190,525)" stroke="rgb(255,204,0)">
      <rect x="1325.5" width="140" height="20" y="69.9219" clip-path="url(#clipPath2)" stroke="none"/>
    </g>
    <g text-rendering="geometricPrecision" stroke-miterlimit="1.45" shape-rendering="geometricPrecision" transform="matrix(1,0,0,1,-190,525)" stroke-linecap="butt">
      <rect fill="none" x="1325.5" width="140" height="20" y="69.9219" clip-path="url(#clipPath2)"/>
    </g>
    <g fill="rgb(255,204,0)" text-rendering="geometricPrecision" shape-rendering="geometricPrecision" transform="matrix(1,0,0,1,-190,525)" stroke="rgb(255,204,0)">
      <rect x="1065.5" width="140" height="20" y="69.9219" clip-path="url(#clipPath2)" stroke="none"/>
    </g>
    <g text-rendering="geometricPrecision" stroke-miterlimit="1.45" shape-rendering="geometricPrecision" transform="matrix(1,0,0,1,-190,525)" stroke-linecap="butt">
      <rect fill="none" x="1065.5" width="140" height="20" y="69.9219" clip-path="url(#clipPath2)"/>
    </g>
    <g fill="rgb(255,204,0)" text-rendering="geometricPrecision" shape-rendering="geometricPrecision" transform="matrix(1,0,0,1,-190,525)" stroke="rgb(255,204,0)">
      <rect x="1745.5" width="140" height="20" y="289.9609" clip-path="url(#clipPath2)" stroke="none"/>
    </g>
    <g text-rendering="geometricPrecision" stroke-miterlimit="1.45" shape-rendering="geometricPrecision" transform="matrix(1,0,0,1,-190,525)" stroke-linecap="butt">
      <rect fill="none" x="1745.5" width="140" height="20" y="289.9609" clip-path="url(#clipPath2)"/>
    </g>
    <g fill="rgb(255,204,0)" text-rendering="geometricPrecision" shape-rendering="geometricPrecision" transform="matrix(1,0,0,1,-190,525)" stroke="rgb(255,204,0)">
      <rect x="1325.5" width="140" height="20" y="290" clip-path="url(#clipPath2)" stroke="none"/>
    </g>
    <g text-rendering="geometricPrecision" stroke-miterlimit="1.45" shape-rendering="geometricPrecision" transform="matrix(1,0,0,1,-190,525)" stroke-linecap="butt">
      <rect fill="none" x="1325.5" width="140" height="20" y="290" clip-path="url(#clipPath2)"/>
    </g>
    <g fill="rgb(255,204,0)" text-rendering="geometricPrecision" shape-rendering="geometricPrecision" transform="matrix(1,0,0,1,-190,525)" stroke="rgb(255,204,0)">
      <rect x="1065.5" width="140" height="20" y="290" clip-path="url(#clipPath2)" stroke="none"/>
    </g>
    <g text-rendering="geometricPrecision" stroke-miterlimit="1.45" shape-rendering="geometricPrecision" transform="matrix(1,0,0,1,-190,525)" stroke-linecap="butt">
      <rect fill="none" x="1065.5" width="140" height="20" y="290" clip-path="url(#clipPath2)"/>
    </g>
    <g fill="rgb(255,204,0)" text-rendering="geometricPrecision" shape-rendering="geometricPrecision" transform="matrix(1,0,0,1,-190,525)" stroke="rgb(255,204,0)">
      <rect x="905.5" width="140" height="20" y="289.9219" clip-path="url(#clipPath2)" stroke="none"/>
    </g>
    <g text-rendering="geometricPrecision" stroke-miterlimit="1.45" shape-rendering="geometricPrecision" transform="matrix(1,0,0,1,-190,525)" stroke-linecap="butt">
      <rect fill="none" x="905.5" width="140" height="20" y="289.9219" clip-path="url(#clipPath2)"/>
    </g>
    <g fill="rgb(255,204,0)" text-rendering="geometricPrecision" shape-rendering="geometricPrecision" transform="matrix(1,0,0,1,-190,525)" stroke="rgb(255,204,0)">
      <rect x="645.5" width="140" height="20" y="289.9219" clip-path="url(#clipPath2)" stroke="none"/>
    </g>
    <g text-rendering="geometricPrecision" stroke-miterlimit="1.45" shape-rendering="geometricPrecision" transform="matrix(1,0,0,1,-190,525)" stroke-linecap="butt">
      <rect fill="none" x="645.5" width="140" height="20" y="289.9219" clip-path="url(#clipPath2)"/>
    </g>
    <g fill="rgb(255,204,0)" text-rendering="geometricPrecision" shape-rendering="geometricPrecision" transform="matrix(1,0,0,1,-190,525)" stroke="rgb(255,204,0)">
      <rect x="1785.5" width="100" height="250" y="-390.0781" clip-path="url(#clipPath2)" stroke="none"/>
    </g>
    <g text-rendering="geometricPrecision" stroke-miterlimit="1.45" shape-rendering="geometricPrecision" transform="matrix(1,0,0,1,-190,525)" stroke-linecap="butt">
      <rect fill="none" x="1785.5" width="100" height="250" y="-390.0781" clip-path="url(#clipPath2)"/>
    </g>
    <g fill="rgb(255,204,0)" text-rendering="geometricPrecision" shape-rendering="geometricPrecision" transform="matrix(1,0,0,1,-190,525)" stroke="rgb(255,204,0)">
      <rect x="225.5" width="100" height="250" y="520" clip-path="url(#clipPath2)" stroke="none"/>
    </g>
    <g text-rendering="geometricPrecision" stroke-miterlimit="1.45" shape-rendering="geometricPrecision" transform="matrix(1,0,0,1,-190,525)" stroke-linecap="butt">
      <rect fill="none" x="225.5" width="100" height="250" y="520" clip-path="url(#clipPath2)"/>
    </g>
    <g fill="rgb(255,204,0)" text-rendering="geometricPrecision" shape-rendering="geometricPrecision" transform="matrix(1,0,0,1,-190,525)" stroke="rgb(255,204,0)">
      <rect x="1785.5" width="40" height="40" y="-55.0781" clip-path="url(#clipPath2)" stroke="none"/>
    </g>
    <g text-rendering="geometricPrecision" stroke-miterlimit="1.45" shape-rendering="geometricPrecision" transform="matrix(1,0,0,1,-190,525)" stroke-linecap="butt">
      <rect fill="none" x="1785.5" width="40" height="40" y="-55.0781" clip-path="url(#clipPath2)"/>
    </g>
    <g fill="rgb(255,204,0)" text-rendering="geometricPrecision" shape-rendering="geometricPrecision" transform="matrix(1,0,0,1,-190,525)" stroke="rgb(255,204,0)">
      <rect x="1535.5" width="40" height="40" y="-180.0781" clip-path="url(#clipPath2)" stroke="none"/>
    </g>
    <g text-rendering="geometricPrecision" stroke-miterlimit="1.45" shape-rendering="geometricPrecision" transform="matrix(1,0,0,1,-190,525)" stroke-linecap="butt">
      <rect fill="none" x="1535.5" width="40" height="40" y="-180.0781" clip-path="url(#clipPath2)"/>
    </g>
    <g fill="rgb(255,204,0)" text-rendering="geometricPrecision" shape-rendering="geometricPrecision" transform="matrix(1,0,0,1,-190,525)" stroke="rgb(255,204,0)">
      <rect x="1535.5" width="40" height="40" y="-305.0781" clip-path="url(#clipPath2)" stroke="none"/>
    </g>
    <g text-rendering="geometricPrecision" stroke-miterlimit="1.45" shape-rendering="geometricPrecision" transform="matrix(1,0,0,1,-190,525)" stroke-linecap="butt">
      <rect fill="none" x="1535.5" width="40" height="40" y="-305.0781" clip-path="url(#clipPath2)"/>
    </g>
    <g fill="rgb(255,204,0)" text-rendering="geometricPrecision" shape-rendering="geometricPrecision" transform="matrix(1,0,0,1,-190,525)" stroke="rgb(255,204,0)">
      <rect x="285.5" width="40" height="40" y="394.9609" clip-path="url(#clipPath2)" stroke="none"/>
    </g>
    <g text-rendering="geometricPrecision" stroke-miterlimit="1.45" shape-rendering="geometricPrecision" transform="matrix(1,0,0,1,-190,525)" stroke-linecap="butt">
      <rect fill="none" x="285.5" width="40" height="40" y="394.9609" clip-path="url(#clipPath2)"/>
    </g>
    <g fill="rgb(255,204,0)" text-rendering="geometricPrecision" shape-rendering="geometricPrecision" transform="matrix(1,0,0,1,-190,525)" stroke="rgb(255,204,0)">
      <rect x="535.5" width="40" height="40" y="519.9609" clip-path="url(#clipPath2)" stroke="none"/>
    </g>
    <g text-rendering="geometricPrecision" stroke-miterlimit="1.45" shape-rendering="geometricPrecision" transform="matrix(1,0,0,1,-190,525)" stroke-linecap="butt">
      <rect fill="none" x="535.5" width="40" height="40" y="519.9609" clip-path="url(#clipPath2)"/>
    </g>
    <g fill="rgb(255,204,0)" text-rendering="geometricPrecision" shape-rendering="geometricPrecision" transform="matrix(1,0,0,1,-190,525)" stroke="rgb(255,204,0)">
      <rect x="535.5" width="40" height="40" y="625" clip-path="url(#clipPath2)" stroke="none"/>
    </g>
    <g text-rendering="geometricPrecision" stroke-miterlimit="1.45" shape-rendering="geometricPrecision" transform="matrix(1,0,0,1,-190,525)" stroke-linecap="butt">
      <rect fill="none" x="535.5" width="40" height="40" y="625" clip-path="url(#clipPath2)"/>
    </g>
    <g fill="rgb(255,204,0)" text-rendering="geometricPrecision" shape-rendering="geometricPrecision" transform="matrix(1,0,0,1,-190,525)" stroke="rgb(255,204,0)">
      <ellipse rx="59.5312" ry="60.3125" clip-path="url(#clipPath2)" cx="347.4446" cy="-252.1518" stroke="none"/>
    </g>
    <g text-rendering="geometricPrecision" stroke-miterlimit="1.45" shape-rendering="geometricPrecision" transform="matrix(1,0,0,1,-190,525)" stroke-linecap="butt">
      <ellipse rx="59.5312" fill="none" ry="60.3125" clip-path="url(#clipPath2)" cx="347.4446" cy="-252.1518"/>
    </g>
    <g fill="rgb(255,204,0)" text-rendering="geometricPrecision" shape-rendering="geometricPrecision" transform="matrix(1,0,0,1,-190,525)" stroke="rgb(255,204,0)">
      <rect x="420.375" width="40" height="40" y="-332.2812" clip-path="url(#clipPath2)" stroke="none"/>
    </g>
    <g text-rendering="geometricPrecision" stroke-miterlimit="1.45" shape-rendering="geometricPrecision" transform="matrix(1,0,0,1,-190,525)" stroke-linecap="butt">
      <rect fill="none" x="420.375" width="40" height="40" y="-332.2812" clip-path="url(#clipPath2)"/>
    </g>
    <g fill="rgb(255,204,0)" text-rendering="geometricPrecision" shape-rendering="geometricPrecision" transform="matrix(1,0,0,1,-190,525)" stroke="rgb(255,204,0)">
      <rect x="420.375" width="40" height="40" y="-191.8393" clip-path="url(#clipPath2)" stroke="none"/>
    </g>
    <g text-rendering="geometricPrecision" stroke-miterlimit="1.45" shape-rendering="geometricPrecision" transform="matrix(1,0,0,1,-190,525)" stroke-linecap="butt">
      <rect fill="none" x="420.375" width="40" height="40" y="-191.8393" clip-path="url(#clipPath2)"/>
    </g>
    <g fill="rgb(255,204,0)" text-rendering="geometricPrecision" shape-rendering="geometricPrecision" transform="matrix(1,0,0,1,-190,525)" stroke="rgb(255,204,0)">
      <rect x="255.5" width="40" height="40" y="-180.0781" clip-path="url(#clipPath2)" stroke="none"/>
    </g>
    <g text-rendering="geometricPrecision" stroke-miterlimit="1.45" shape-rendering="geometricPrecision" transform="matrix(1,0,0,1,-190,525)" stroke-linecap="butt">
      <rect fill="none" x="255.5" width="40" height="40" y="-180.0781" clip-path="url(#clipPath2)"/>
    </g>
    <g fill="rgb(255,204,0)" text-rendering="geometricPrecision" shape-rendering="geometricPrecision" transform="matrix(1,0,0,1,-190,525)" stroke="rgb(255,204,0)">
      <rect x="525.5" width="100" height="102.032" y="-32.1101" clip-path="url(#clipPath2)" stroke="none"/>
    </g>
    <g text-rendering="geometricPrecision" stroke-miterlimit="1.45" shape-rendering="geometricPrecision" transform="matrix(1,0,0,1,-190,525)" stroke-linecap="butt">
      <rect fill="none" x="525.5" width="100" height="102.032" y="-32.1101" clip-path="url(#clipPath2)"/>
    </g>
    <g fill="rgb(255,204,0)" text-rendering="geometricPrecision" shape-rendering="geometricPrecision" transform="matrix(1,0,0,1,-190,525)" stroke="rgb(255,204,0)">
      <rect x="1833.9375" width="51.5625" height="250" y="520" clip-path="url(#clipPath2)" stroke="none"/>
    </g>
    <g text-rendering="geometricPrecision" stroke-miterlimit="1.45" shape-rendering="geometricPrecision" transform="matrix(1,0,0,1,-190,525)" stroke-linecap="butt">
      <rect fill="none" x="1833.9375" width="51.5625" height="250" y="520" clip-path="url(#clipPath2)"/>
    </g>
    <g fill="rgb(255,204,0)" text-rendering="geometricPrecision" shape-rendering="geometricPrecision" transform="matrix(1,0,0,1,-190,525)" stroke="rgb(255,204,0)">
      <rect x="1637.0625" width="196.875" height="56.25" y="713.75" clip-path="url(#clipPath2)" stroke="none"/>
    </g>
    <g text-rendering="geometricPrecision" stroke-miterlimit="1.45" shape-rendering="geometricPrecision" transform="matrix(1,0,0,1,-190,525)" stroke-linecap="butt">
      <rect fill="none" x="1637.0625" width="196.875" height="56.25" y="713.75" clip-path="url(#clipPath2)"/>
    </g>
    <g fill="rgb(255,204,0)" text-rendering="geometricPrecision" shape-rendering="geometricPrecision" transform="matrix(1,0,0,1,-190,525)" stroke="rgb(255,204,0)">
      <rect x="1485.5" width="100" height="102.032" y="309.9609" clip-path="url(#clipPath2)" stroke="none"/>
    </g>
    <g text-rendering="geometricPrecision" stroke-miterlimit="1.45" shape-rendering="geometricPrecision" transform="matrix(1,0,0,1,-190,525)" stroke-linecap="butt">
      <rect fill="none" x="1485.5" width="100" height="102.032" y="309.9609" clip-path="url(#clipPath2)"/>
    </g>
    <g fill="rgb(255,204,0)" text-rendering="geometricPrecision" shape-rendering="geometricPrecision" transform="matrix(1,0,0,1,-190,525)" stroke="rgb(255,204,0)">
      <rect x="1644.7188" y="524.9805" clip-path="url(#clipPath2)" width="140" rx="4" ry="4" height="137.8125" stroke="none"/>
    </g>
    <g text-rendering="geometricPrecision" stroke-miterlimit="1.45" shape-rendering="geometricPrecision" transform="matrix(1,0,0,1,-190,525)" stroke-linecap="butt">
      <rect x="1644.7188" y="524.9805" clip-path="url(#clipPath2)" fill="none" width="140" rx="4" ry="4" height="137.8125"/>
    </g>
    <g fill="rgb(255,204,0)" text-rendering="geometricPrecision" shape-rendering="geometricPrecision" transform="matrix(1,0,0,1,-190,525)" stroke="rgb(255,204,0)">
      <rect x="1373.0515" width="30" height="30" y="-509.625" clip-path="url(#clipPath2)" stroke="none"/>
    </g>
    <g text-rendering="geometricPrecision" stroke-miterlimit="1.45" shape-rendering="geometricPrecision" font-family="sans-serif" transform="matrix(1,0,0,1,-190,525)" stroke-linecap="butt">
      <text x="1380.4167" xml:space="preserve" y="-490.4707" clip-path="url(#clipPath2)" stroke="none">54</text>
      <rect fill="none" x="1373.0515" width="30" height="30" y="-509.625" clip-path="url(#clipPath2)"/>
    </g>
  </g>
</svg>
